<svg xmlns="http://www.w3.org/2000/svg" viewBox="0 0 64 64" width="64" height="64" role="img" aria-label="Panda Panel">
  <!-- The ears carry a soft rim so they stay visible on a dark navbar too. -->
  <circle cx="15" cy="16" r="10" fill="#16161a" stroke="#9a9aa6" stroke-width="2"/>
  <circle cx="49" cy="16" r="10" fill="#16161a" stroke="#9a9aa6" stroke-width="2"/>
  <circle cx="15" cy="16" r="4.5" fill="#43454f"/>
  <circle cx="49" cy="16" r="4.5" fill="#43454f"/>
  <ellipse cx="32" cy="35" rx="25" ry="23" fill="#ffffff" stroke="#16161a" stroke-width="2.5"/>
  <ellipse cx="22" cy="31" rx="7.2" ry="8.6" fill="#16161a" transform="rotate(-16 22 31)"/>
  <ellipse cx="42" cy="31" rx="7.2" ry="8.6" fill="#16161a" transform="rotate(16 42 31)"/>
  <circle cx="23" cy="30.5" r="3.1" fill="#ffffff"/>
  <circle cx="41" cy="30.5" r="3.1" fill="#ffffff"/>
  <circle cx="23.6" cy="30" r="1.7" fill="#16161a"/>
  <circle cx="41.6" cy="30" r="1.7" fill="#16161a"/>
  <ellipse cx="32" cy="42" rx="4.2" ry="3" fill="#16161a"/>
  <path d="M32 45v2.4m0 0c0 2.6-4.4 3.4-5.6 1m5.6-1c0 2.6 4.4 3.4 5.6 1"
        fill="none" stroke="#16161a" stroke-width="2" stroke-linecap="round"/>
  <path d="M55 6c-4.6.4-7.6 3.2-7.8 7.2 4.4.2 7.4-2.6 7.8-7.2z" fill="#2e9e5b"/>
</svg>
